<?xml version="1.0" encoding="utf-8" standalone="no"?>
<!DOCTYPE svg PUBLIC "-//W3C//DTD SVG 1.1//EN"
  "http://www.w3.org/Graphics/SVG/1.1/DTD/svg11.dtd">
<svg xmlns:xlink="http://www.w3.org/1999/xlink" width="576pt" height="432pt" viewBox="0 0 576 432" xmlns="http://www.w3.org/2000/svg" version="1.1">
 <metadata>
  <rdf:RDF xmlns:dc="http://purl.org/dc/elements/1.1/" xmlns:cc="http://creativecommons.org/ns#" xmlns:rdf="http://www.w3.org/1999/02/22-rdf-syntax-ns#">
   <cc:Work>
    <dc:type rdf:resource="http://purl.org/dc/dcmitype/StillImage"/>
    <dc:date>2023-11-18T12:11:09.889985</dc:date>
    <dc:format>image/svg+xml</dc:format>
    <dc:creator>
     <cc:Agent>
      <dc:title>Matplotlib v3.5.2, https://matplotlib.org/</dc:title>
     </cc:Agent>
    </dc:creator>
   </cc:Work>
  </rdf:RDF>
 </metadata>
 <defs>
  <style type="text/css">*{stroke-linejoin: round; stroke-linecap: butt}</style>
 </defs>
 <g id="figure_1">
  <g id="patch_1">
   <path d="M 0 432 
L 576 432 
L 576 0 
L 0 0 
z
" style="fill: #ffffff"/>
  </g>
  <g id="axes_1">
   <g id="patch_2">
    <path d="M 72 384.48 
L 518.4 384.48 
L 518.4 51.84 
L 72 51.84 
z
" style="fill: #ffffff"/>
   </g>
   <g id="PolyCollection_1">
    <defs>
     <path id="mdbacc76f68" d="M 127.855794 -62.64 
L 127.744206 -62.64 
L 127.332645 -65.017173 
L 125.338129 -67.394346 
L 119.519442 -69.771519 
L 109.522544 -72.148692 
L 99.877777 -74.525865 
L 95.578138 -76.903038 
L 96.518831 -79.280211 
L 99.831865 -81.657384 
L 103.462989 -84.034558 
L 106.52146 -86.411731 
L 108.89094 -88.788904 
L 110.796417 -91.166077 
L 112.349791 -93.54325 
L 113.619519 -95.920423 
L 114.778896 -98.297596 
L 115.951202 -100.674769 
L 117.089918 -103.051942 
L 118.074494 -105.429115 
L 118.885206 -107.806288 
L 119.604516 -110.183461 
L 120.278175 -112.560634 
L 120.892132 -114.937807 
L 121.465655 -117.31498 
L 122.008829 -119.692153 
L 122.504864 -122.069326 
L 122.977901 -124.4465 
L 123.423166 -126.823673 
L 123.814211 -129.200846 
L 124.151133 -131.578019 
L 124.452056 -133.955192 
L 124.746181 -136.332365 
L 125.019691 -138.709538 
L 125.231846 -141.086711 
L 125.388263 -143.463884 
L 125.549054 -145.841057 
L 125.737738 -148.21823 
L 125.917385 -150.595403 
L 126.063281 -152.972576 
L 126.169024 -155.349749 
L 126.23923 -157.726922 
L 126.317856 -160.104095 
L 126.438976 -162.481268 
L 126.584702 -164.858441 
L 126.707536 -167.235615 
L 126.77443 -169.612788 
L 126.811008 -171.989961 
L 126.854618 -174.367134 
L 126.909525 -176.744307 
L 126.974423 -179.12148 
L 127.055351 -181.498653 
L 127.148538 -183.875826 
L 127.234375 -186.252999 
L 127.291648 -188.630172 
L 127.323387 -191.007345 
L 127.353001 -193.384518 
L 127.392632 -195.761691 
L 127.434759 -198.138864 
L 127.463174 -200.516037 
L 127.476477 -202.89321 
L 127.492826 -205.270383 
L 127.521487 -207.647557 
L 127.55804 -210.02473 
L 127.59409 -212.401903 
L 127.620658 -214.779076 
L 127.637589 -217.156249 
L 127.651726 -219.533422 
L 127.665678 -221.910595 
L 127.679325 -224.287768 
L 127.693782 -226.664941 
L 127.703119 -229.042114 
L 127.703083 -231.419287 
L 127.703677 -233.79646 
L 127.712312 -236.173633 
L 127.724775 -238.550806 
L 127.735572 -240.927979 
L 127.74392 -243.305152 
L 127.751297 -245.682325 
L 127.756575 -248.059499 
L 127.758915 -250.436672 
L 127.760874 -252.813845 
L 127.764875 -255.191018 
L 127.769443 -257.568191 
L 127.773329 -259.945364 
L 127.776847 -262.322537 
L 127.78019 -264.69971 
L 127.783931 -267.076883 
L 127.788157 -269.454056 
L 127.791907 -271.831229 
L 127.794838 -274.208402 
L 127.796642 -276.585575 
L 127.797139 -278.962748 
L 127.797427 -281.339921 
L 127.797587 -283.717094 
L 127.797119 -286.094267 
L 127.796708 -288.47144 
L 127.796806 -290.848614 
L 127.797595 -293.225787 
L 127.798838 -295.60296 
L 127.79968 -297.980133 
L 127.80032 -297.980133 
L 127.80032 -297.980133 
L 127.801162 -295.60296 
L 127.802405 -293.225787 
L 127.803194 -290.848614 
L 127.803292 -288.47144 
L 127.802881 -286.094267 
L 127.802413 -283.717094 
L 127.802573 -281.339921 
L 127.802861 -278.962748 
L 127.803358 -276.585575 
L 127.805162 -274.208402 
L 127.808093 -271.831229 
L 127.811843 -269.454056 
L 127.816069 -267.076883 
L 127.81981 -264.69971 
L 127.823153 -262.322537 
L 127.826671 -259.945364 
L 127.830557 -257.568191 
L 127.835125 -255.191018 
L 127.839126 -252.813845 
L 127.841085 -250.436672 
L 127.843425 -248.059499 
L 127.848703 -245.682325 
L 127.85608 -243.305152 
L 127.864428 -240.927979 
L 127.875225 -238.550806 
L 127.887688 -236.173633 
L 127.896323 -233.79646 
L 127.896917 -231.419287 
L 127.896881 -229.042114 
L 127.906218 -226.664941 
L 127.920675 -224.287768 
L 127.934322 -221.910595 
L 127.948274 -219.533422 
L 127.962411 -217.156249 
L 127.979342 -214.779076 
L 128.00591 -212.401903 
L 128.04196 -210.02473 
L 128.078513 -207.647557 
L 128.107174 -205.270383 
L 128.123523 -202.89321 
L 128.136826 -200.516037 
L 128.165241 -198.138864 
L 128.207368 -195.761691 
L 128.246999 -193.384518 
L 128.276613 -191.007345 
L 128.308352 -188.630172 
L 128.365625 -186.252999 
L 128.451462 -183.875826 
L 128.544649 -181.498653 
L 128.625577 -179.12148 
L 128.690475 -176.744307 
L 128.745382 -174.367134 
L 128.788992 -171.989961 
L 128.82557 -169.612788 
L 128.892464 -167.235615 
L 129.015298 -164.858441 
L 129.161024 -162.481268 
L 129.282144 -160.104095 
L 129.36077 -157.726922 
L 129.430976 -155.349749 
L 129.536719 -152.972576 
L 129.682615 -150.595403 
L 129.862262 -148.21823 
L 130.050946 -145.841057 
L 130.211737 -143.463884 
L 130.368154 -141.086711 
L 130.580309 -138.709538 
L 130.853819 -136.332365 
L 131.147944 -133.955192 
L 131.448867 -131.578019 
L 131.785789 -129.200846 
L 132.176834 -126.823673 
L 132.622099 -124.4465 
L 133.095136 -122.069326 
L 133.591171 -119.692153 
L 134.134345 -117.31498 
L 134.707868 -114.937807 
L 135.321825 -112.560634 
L 135.995484 -110.183461 
L 136.714794 -107.806288 
L 137.525506 -105.429115 
L 138.510082 -103.051942 
L 139.648798 -100.674769 
L 140.821104 -98.297596 
L 141.980481 -95.920423 
L 143.250209 -93.54325 
L 144.803583 -91.166077 
L 146.70906 -88.788904 
L 149.07854 -86.411731 
L 152.137011 -84.034558 
L 155.768135 -81.657384 
L 159.081169 -79.280211 
L 160.021862 -76.903038 
L 155.722223 -74.525865 
L 146.077456 -72.148692 
L 136.080558 -69.771519 
L 130.261871 -67.394346 
L 128.267355 -65.017173 
L 127.855794 -62.64 
z
" style="stroke: #3d3d3d; stroke-width: 1.5"/>
    </defs>
    <g clip-path="url(#pb49b15c689)">
     <use xlink:href="#mdbacc76f68" x="0" y="432" style="fill: #3274a1; stroke: #3d3d3d; stroke-width: 1.5"/>
    </g>
   </g>
   <g id="PolyCollection_2">
    <defs>
     <path id="m1d2fe616e8" d="M 239.447084 -62.973133 
L 239.352916 -62.973133 
L 239.070057 -65.031149 
L 237.835667 -67.089164 
L 234.270242 -69.147179 
L 227.425234 -71.205195 
L 218.71919 -73.26321 
L 211.584181 -75.321225 
L 208.339788 -77.37924 
L 208.632878 -79.437256 
L 210.881931 -81.495271 
L 213.700581 -83.553286 
L 216.253077 -85.611302 
L 218.358033 -87.669317 
L 220.214873 -89.727332 
L 221.81987 -91.785348 
L 222.982071 -93.843363 
L 223.834402 -95.901378 
L 224.721782 -97.959393 
L 225.745263 -100.017409 
L 226.807017 -102.075424 
L 227.840183 -104.133439 
L 228.806723 -106.191455 
L 229.643433 -108.24947 
L 230.338596 -110.307485 
L 230.964161 -112.365501 
L 231.591977 -114.423516 
L 232.257397 -116.481531 
L 232.927682 -118.539546 
L 233.501261 -120.597562 
L 233.945526 -122.655577 
L 234.347843 -124.713592 
L 234.772571 -126.771608 
L 235.184689 -128.829623 
L 235.545987 -130.887638 
L 235.873758 -132.945654 
L 236.185454 -135.003669 
L 236.464868 -137.061684 
L 236.711962 -139.119699 
L 236.957205 -141.177715 
L 237.198312 -143.23573 
L 237.386447 -145.293745 
L 237.509543 -147.351761 
L 237.628619 -149.409776 
L 237.78247 -151.467791 
L 237.937625 -153.525807 
L 238.062353 -155.583822 
L 238.163251 -157.641837 
L 238.24161 -159.699852 
L 238.298981 -161.757868 
L 238.366296 -163.815883 
L 238.459337 -165.873898 
L 238.562788 -167.931914 
L 238.668445 -169.989929 
L 238.766474 -172.047944 
L 238.833058 -174.10596 
L 238.869792 -176.163975 
L 238.90517 -178.22199 
L 238.952238 -180.280005 
L 239.00498 -182.338021 
L 239.05356 -184.396036 
L 239.091563 -186.454051 
L 239.120638 -188.512067 
L 239.142439 -190.570082 
L 239.156415 -192.628097 
L 239.170666 -194.686113 
L 239.193078 -196.744128 
L 239.219209 -198.802143 
L 239.245023 -200.860158 
L 239.268611 -202.918174 
L 239.285409 -204.976189 
L 239.297788 -207.034204 
L 239.310707 -209.09222 
L 239.32122 -211.150235 
L 239.325302 -213.20825 
L 239.324601 -215.266266 
L 239.32048 -217.324281 
L 239.315232 -219.382296 
L 239.316701 -221.440311 
L 239.32711 -223.498327 
L 239.341705 -225.556342 
L 239.357131 -227.614357 
L 239.368401 -229.672373 
L 239.371748 -231.730388 
L 239.370006 -233.788403 
L 239.368659 -235.846419 
L 239.371142 -237.904434 
L 239.376544 -239.962449 
L 239.381361 -242.020464 
L 239.384076 -244.07848 
L 239.386469 -246.136495 
L 239.390377 -248.19451 
L 239.394816 -250.252526 
L 239.397243 -252.310541 
L 239.396194 -254.368556 
L 239.392633 -256.426572 
L 239.390024 -258.484587 
L 239.391066 -260.542602 
L 239.3946 -262.600617 
L 239.3978 -264.658633 
L 239.399413 -266.716648 
L 239.400587 -266.716648 
L 239.400587 -266.716648 
L 239.4022 -264.658633 
L 239.4054 -262.600617 
L 239.408934 -260.542602 
L 239.409976 -258.484587 
L 239.407367 -256.426572 
L 239.403806 -254.368556 
L 239.402757 -252.310541 
L 239.405184 -250.252526 
L 239.409623 -248.19451 
L 239.413531 -246.136495 
L 239.415924 -244.07848 
L 239.418639 -242.020464 
L 239.423456 -239.962449 
L 239.428858 -237.904434 
L 239.431341 -235.846419 
L 239.429994 -233.788403 
L 239.428252 -231.730388 
L 239.431599 -229.672373 
L 239.442869 -227.614357 
L 239.458295 -225.556342 
L 239.47289 -223.498327 
L 239.483299 -221.440311 
L 239.484768 -219.382296 
L 239.47952 -217.324281 
L 239.475399 -215.266266 
L 239.474698 -213.20825 
L 239.47878 -211.150235 
L 239.489293 -209.09222 
L 239.502212 -207.034204 
L 239.514591 -204.976189 
L 239.531389 -202.918174 
L 239.554977 -200.860158 
L 239.580791 -198.802143 
L 239.606922 -196.744128 
L 239.629334 -194.686113 
L 239.643585 -192.628097 
L 239.657561 -190.570082 
L 239.679362 -188.512067 
L 239.708437 -186.454051 
L 239.74644 -184.396036 
L 239.79502 -182.338021 
L 239.847762 -180.280005 
L 239.89483 -178.22199 
L 239.930208 -176.163975 
L 239.966942 -174.10596 
L 240.033526 -172.047944 
L 240.131555 -169.989929 
L 240.237212 -167.931914 
L 240.340663 -165.873898 
L 240.433704 -163.815883 
L 240.501019 -161.757868 
L 240.55839 -159.699852 
L 240.636749 -157.641837 
L 240.737647 -155.583822 
L 240.862375 -153.525807 
L 241.01753 -151.467791 
L 241.171381 -149.409776 
L 241.290457 -147.351761 
L 241.413553 -145.293745 
L 241.601688 -143.23573 
L 241.842795 -141.177715 
L 242.088038 -139.119699 
L 242.335132 -137.061684 
L 242.614546 -135.003669 
L 242.926242 -132.945654 
L 243.254013 -130.887638 
L 243.615311 -128.829623 
L 244.027429 -126.771608 
L 244.452157 -124.713592 
L 244.854474 -122.655577 
L 245.298739 -120.597562 
L 245.872318 -118.539546 
L 246.542603 -116.481531 
L 247.208023 -114.423516 
L 247.835839 -112.365501 
L 248.461404 -110.307485 
L 249.156567 -108.24947 
L 249.993277 -106.191455 
L 250.959817 -104.133439 
L 251.992983 -102.075424 
L 253.054737 -100.017409 
L 254.078218 -97.959393 
L 254.965598 -95.901378 
L 255.817929 -93.843363 
L 256.98013 -91.785348 
L 258.585127 -89.727332 
L 260.441967 -87.669317 
L 262.546923 -85.611302 
L 265.099419 -83.553286 
L 267.918069 -81.495271 
L 270.167122 -79.437256 
L 270.460212 -77.37924 
L 267.215819 -75.321225 
L 260.08081 -73.26321 
L 251.374766 -71.205195 
L 244.529758 -69.147179 
L 240.964333 -67.089164 
L 239.729943 -65.031149 
L 239.447084 -62.973133 
z
" style="stroke: #3d3d3d; stroke-width: 1.5"/>
    </defs>
    <g clip-path="url(#pb49b15c689)">
     <use xlink:href="#m1d2fe616e8" x="0" y="432" style="fill: #e1812c; stroke: #3d3d3d; stroke-width: 1.5"/>
    </g>
   </g>
   <g id="PolyCollection_3">
    <defs>
     <path id="m684b6611a1" d="M 351.038747 -63.271395 
L 350.961253 -63.271395 
L 350.391345 -65.388497 
L 346.48313 -67.505598 
L 334.109114 -69.6227 
L 316.348251 -71.739802 
L 306.36 -73.856904 
L 307.613981 -75.974005 
L 313.442872 -78.091107 
L 319.29551 -80.208209 
L 324.031399 -82.325311 
L 327.540444 -84.442412 
L 329.974433 -86.559514 
L 331.92599 -88.676616 
L 333.908741 -90.793718 
L 335.810561 -92.910819 
L 337.377476 -95.027921 
L 338.770204 -97.145023 
L 340.030278 -99.262124 
L 341.036372 -101.379226 
L 341.977677 -103.496328 
L 343.010625 -105.61343 
L 343.954811 -107.730531 
L 344.659092 -109.847633 
L 345.267354 -111.964735 
L 346.005828 -114.081837 
L 346.737762 -116.198938 
L 347.198286 -118.31604 
L 347.526347 -120.433142 
L 347.942355 -122.550244 
L 348.389706 -124.667345 
L 348.758002 -126.784447 
L 348.986281 -128.901549 
L 349.09991 -131.01865 
L 349.258941 -133.135752 
L 349.443677 -135.252854 
L 349.572755 -137.369956 
L 349.72668 -139.487057 
L 349.906678 -141.604159 
L 350.019999 -143.721261 
L 350.104994 -145.838363 
L 350.196288 -147.955464 
L 350.274827 -150.072566 
L 350.34578 -152.189668 
L 350.440308 -154.30677 
L 350.50876 -156.423871 
L 350.520563 -158.540973 
L 350.538707 -160.658075 
L 350.590458 -162.775176 
L 350.641364 -164.892278 
L 350.671673 -167.00938 
L 350.700251 -169.126482 
L 350.735973 -171.243583 
L 350.780891 -173.360685 
L 350.82982 -175.477787 
L 350.845321 -177.594889 
L 350.845955 -179.71199 
L 350.861181 -181.829092 
L 350.87079 -183.946194 
L 350.887285 -186.063296 
L 350.907981 -188.180397 
L 350.921054 -190.297499 
L 350.9243 -192.414601 
L 350.918329 -194.531702 
L 350.915644 -196.648804 
L 350.921708 -198.765906 
L 350.938709 -200.883008 
L 350.961561 -203.000109 
L 350.973334 -205.117211 
L 350.97246 -207.234313 
L 350.975263 -209.351415 
L 350.983393 -211.468516 
L 350.984941 -213.585618 
L 350.985778 -215.70272 
L 350.985293 -217.819822 
L 350.980218 -219.936923 
L 350.97759 -222.054025 
L 350.977937 -224.171127 
L 350.984108 -226.288228 
L 350.989431 -228.40533 
L 350.990882 -230.522432 
L 350.994171 -232.639534 
L 350.997498 -234.756635 
L 350.997161 -236.873737 
L 350.997075 -238.990839 
L 350.998567 -241.107941 
L 350.998072 -243.225042 
L 350.99682 -245.342144 
L 350.998064 -247.459246 
L 350.999593 -249.576348 
L 350.999922 -251.693449 
L 350.99943 -253.810551 
L 350.997732 -255.927653 
L 350.996895 -258.044754 
L 350.998539 -260.161856 
L 350.999743 -262.278958 
L 350.999661 -264.39606 
L 350.998267 -266.513161 
L 350.996831 -268.630263 
L 350.998009 -270.747365 
L 350.99957 -272.864467 
L 351.00043 -272.864467 
L 351.00043 -272.864467 
L 351.001991 -270.747365 
L 351.003169 -268.630263 
L 351.001733 -266.513161 
L 351.000339 -264.39606 
L 351.000257 -262.278958 
L 351.001461 -260.161856 
L 351.003105 -258.044754 
L 351.002268 -255.927653 
L 351.00057 -253.810551 
L 351.000078 -251.693449 
L 351.000407 -249.576348 
L 351.001936 -247.459246 
L 351.00318 -245.342144 
L 351.001928 -243.225042 
L 351.001433 -241.107941 
L 351.002925 -238.990839 
L 351.002839 -236.873737 
L 351.002502 -234.756635 
L 351.005829 -232.639534 
L 351.009118 -230.522432 
L 351.010569 -228.40533 
L 351.015892 -226.288228 
L 351.022063 -224.171127 
L 351.02241 -222.054025 
L 351.019782 -219.936923 
L 351.014707 -217.819822 
L 351.014222 -215.70272 
L 351.015059 -213.585618 
L 351.016607 -211.468516 
L 351.024737 -209.351415 
L 351.02754 -207.234313 
L 351.026666 -205.117211 
L 351.038439 -203.000109 
L 351.061291 -200.883008 
L 351.078292 -198.765906 
L 351.084356 -196.648804 
L 351.081671 -194.531702 
L 351.0757 -192.414601 
L 351.078946 -190.297499 
L 351.092019 -188.180397 
L 351.112715 -186.063296 
L 351.12921 -183.946194 
L 351.138819 -181.829092 
L 351.154045 -179.71199 
L 351.154679 -177.594889 
L 351.17018 -175.477787 
L 351.219109 -173.360685 
L 351.264027 -171.243583 
L 351.299749 -169.126482 
L 351.328327 -167.00938 
L 351.358636 -164.892278 
L 351.409542 -162.775176 
L 351.461293 -160.658075 
L 351.479437 -158.540973 
L 351.49124 -156.423871 
L 351.559692 -154.30677 
L 351.65422 -152.189668 
L 351.725173 -150.072566 
L 351.803712 -147.955464 
L 351.895006 -145.838363 
L 351.980001 -143.721261 
L 352.093322 -141.604159 
L 352.27332 -139.487057 
L 352.427245 -137.369956 
L 352.556323 -135.252854 
L 352.741059 -133.135752 
L 352.90009 -131.01865 
L 353.013719 -128.901549 
L 353.241998 -126.784447 
L 353.610294 -124.667345 
L 354.057645 -122.550244 
L 354.473653 -120.433142 
L 354.801714 -118.31604 
L 355.262238 -116.198938 
L 355.994172 -114.081837 
L 356.732646 -111.964735 
L 357.340908 -109.847633 
L 358.045189 -107.730531 
L 358.989375 -105.61343 
L 360.022323 -103.496328 
L 360.963628 -101.379226 
L 361.969722 -99.262124 
L 363.229796 -97.145023 
L 364.622524 -95.027921 
L 366.189439 -92.910819 
L 368.091259 -90.793718 
L 370.07401 -88.676616 
L 372.025567 -86.559514 
L 374.459556 -84.442412 
L 377.968601 -82.325311 
L 382.70449 -80.208209 
L 388.557128 -78.091107 
L 394.386019 -75.974005 
L 395.64 -73.856904 
L 385.651749 -71.739802 
L 367.890886 -69.6227 
L 355.51687 -67.505598 
L 351.608655 -65.388497 
L 351.038747 -63.271395 
z
" style="stroke: #3d3d3d; stroke-width: 1.5"/>
    </defs>
    <g clip-path="url(#pb49b15c689)">
     <use xlink:href="#m684b6611a1" x="0" y="432" style="fill: #3a923a; stroke: #3d3d3d; stroke-width: 1.5"/>
    </g>
   </g>
   <g id="PolyCollection_4">
    <defs>
     <path id="m62e5d8e5fe" d="M 462.630677 -63.128553 
L 462.569323 -63.128553 
L 461.94165 -66.178164 
L 457.134009 -69.227774 
L 443.88418 -72.277385 
L 431.909705 -75.326996 
L 430.278215 -78.376606 
L 433.988914 -81.426217 
L 438.322537 -84.475827 
L 441.645706 -87.525438 
L 444.090703 -90.575048 
L 446.19073 -93.624659 
L 448.088731 -96.67427 
L 449.781785 -99.72388 
L 451.187172 -102.773491 
L 452.337557 -105.823101 
L 453.550648 -108.872712 
L 454.720926 -111.922322 
L 455.578486 -114.971933 
L 456.450624 -118.021544 
L 457.22544 -121.071154 
L 457.825765 -124.120765 
L 458.373516 -127.170375 
L 458.814572 -130.219986 
L 459.244542 -133.269596 
L 459.712161 -136.319207 
L 460.092884 -139.368818 
L 460.411909 -142.418428 
L 460.667332 -145.468039 
L 460.852458 -148.517649 
L 461.012647 -151.56726 
L 461.177604 -154.61687 
L 461.320595 -157.666481 
L 461.429325 -160.716092 
L 461.564318 -163.765702 
L 461.713501 -166.815313 
L 461.808753 -169.864923 
L 461.890292 -172.914534 
L 461.973903 -175.964144 
L 462.019346 -179.013755 
L 462.065494 -182.063366 
L 462.135501 -185.112976 
L 462.189339 -188.162587 
L 462.262313 -191.212197 
L 462.312377 -194.261808 
L 462.344181 -197.311418 
L 462.361769 -200.361029 
L 462.379987 -203.41064 
L 462.40653 -206.46025 
L 462.431405 -209.509861 
L 462.466415 -212.559471 
L 462.486073 -215.609082 
L 462.481183 -218.658692 
L 462.501506 -221.708303 
L 462.532169 -224.757914 
L 462.542058 -227.807524 
L 462.546295 -230.857135 
L 462.557528 -233.906745 
L 462.56568 -236.956356 
L 462.566449 -240.005967 
L 462.564591 -243.055577 
L 462.570806 -246.105188 
L 462.58377 -249.154798 
L 462.58668 -252.204409 
L 462.585511 -255.254019 
L 462.586078 -258.30363 
L 462.585214 -261.353241 
L 462.587797 -264.402851 
L 462.589917 -267.452462 
L 462.58952 -270.502072 
L 462.590949 -273.551683 
L 462.59451 -276.601293 
L 462.596819 -279.650904 
L 462.598158 -282.700515 
L 462.599431 -285.750125 
L 462.598558 -288.799736 
L 462.596309 -291.849346 
L 462.597454 -294.898957 
L 462.599453 -297.948567 
L 462.599164 -300.998178 
L 462.598066 -304.047789 
L 462.598865 -307.097399 
L 462.599835 -310.14701 
L 462.599994 -313.19662 
L 462.6 -316.246231 
L 462.6 -319.295841 
L 462.6 -322.345452 
L 462.6 -325.395063 
L 462.6 -328.444673 
L 462.6 -331.494284 
L 462.6 -334.543894 
L 462.6 -337.593505 
L 462.6 -340.643115 
L 462.6 -343.692726 
L 462.6 -346.742337 
L 462.599999 -349.791947 
L 462.599953 -352.841558 
L 462.599409 -355.891168 
L 462.598172 -358.940779 
L 462.598603 -361.990389 
L 462.599736 -365.04 
L 462.600264 -365.04 
L 462.600264 -365.04 
L 462.601397 -361.990389 
L 462.601828 -358.940779 
L 462.600591 -355.891168 
L 462.600047 -352.841558 
L 462.600001 -349.791947 
L 462.6 -346.742337 
L 462.6 -343.692726 
L 462.6 -340.643115 
L 462.6 -337.593505 
L 462.6 -334.543894 
L 462.6 -331.494284 
L 462.6 -328.444673 
L 462.6 -325.395063 
L 462.6 -322.345452 
L 462.6 -319.295841 
L 462.6 -316.246231 
L 462.600006 -313.19662 
L 462.600165 -310.14701 
L 462.601135 -307.097399 
L 462.601934 -304.047789 
L 462.600836 -300.998178 
L 462.600547 -297.948567 
L 462.602546 -294.898957 
L 462.603691 -291.849346 
L 462.601442 -288.799736 
L 462.600569 -285.750125 
L 462.601842 -282.700515 
L 462.603181 -279.650904 
L 462.60549 -276.601293 
L 462.609051 -273.551683 
L 462.61048 -270.502072 
L 462.610083 -267.452462 
L 462.612203 -264.402851 
L 462.614786 -261.353241 
L 462.613922 -258.30363 
L 462.614489 -255.254019 
L 462.61332 -252.204409 
L 462.61623 -249.154798 
L 462.629194 -246.105188 
L 462.635409 -243.055577 
L 462.633551 -240.005967 
L 462.63432 -236.956356 
L 462.642472 -233.906745 
L 462.653705 -230.857135 
L 462.657942 -227.807524 
L 462.667831 -224.757914 
L 462.698494 -221.708303 
L 462.718817 -218.658692 
L 462.713927 -215.609082 
L 462.733585 -212.559471 
L 462.768595 -209.509861 
L 462.79347 -206.46025 
L 462.820013 -203.41064 
L 462.838231 -200.361029 
L 462.855819 -197.311418 
L 462.887623 -194.261808 
L 462.937687 -191.212197 
L 463.010661 -188.162587 
L 463.064499 -185.112976 
L 463.134506 -182.063366 
L 463.180654 -179.013755 
L 463.226097 -175.964144 
L 463.309708 -172.914534 
L 463.391247 -169.864923 
L 463.486499 -166.815313 
L 463.635682 -163.765702 
L 463.770675 -160.716092 
L 463.879405 -157.666481 
L 464.022396 -154.61687 
L 464.187353 -151.56726 
L 464.347542 -148.517649 
L 464.532668 -145.468039 
L 464.788091 -142.418428 
L 465.107116 -139.368818 
L 465.487839 -136.319207 
L 465.955458 -133.269596 
L 466.385428 -130.219986 
L 466.826484 -127.170375 
L 467.374235 -124.120765 
L 467.97456 -121.071154 
L 468.749376 -118.021544 
L 469.621514 -114.971933 
L 470.479074 -111.922322 
L 471.649352 -108.872712 
L 472.862443 -105.823101 
L 474.012828 -102.773491 
L 475.418215 -99.72388 
L 477.111269 -96.67427 
L 479.00927 -93.624659 
L 481.109297 -90.575048 
L 483.554294 -87.525438 
L 486.877463 -84.475827 
L 491.211086 -81.426217 
L 494.921785 -78.376606 
L 493.290295 -75.326996 
L 481.31582 -72.277385 
L 468.065991 -69.227774 
L 463.25835 -66.178164 
L 462.630677 -63.128553 
z
" style="stroke: #3d3d3d; stroke-width: 1.5"/>
    </defs>
    <g clip-path="url(#pb49b15c689)">
     <use xlink:href="#m62e5d8e5fe" x="0" y="432" style="fill: #c03d3e; stroke: #3d3d3d; stroke-width: 1.5"/>
    </g>
   </g>
   <g id="matplotlib.axis_1">
    <g id="xtick_1">
     <g id="line2d_1">
      <defs>
       <path id="m138ce402bf" d="M 0 0 
L 0 3.5 
" style="stroke: #000000; stroke-width: 0.8"/>
      </defs>
      <g>
       <use xlink:href="#m138ce402bf" x="127.8" y="384.48" style="stroke: #000000; stroke-width: 0.8"/>
      </g>
     </g>
     <g id="text_1">
      <!-- SM -->
      <g transform="translate(120.311719 399.078438)scale(0.1 -0.1)">
       <defs>
        <path id="DejaVuSans-53" d="M 3425 4513 
L 3425 3897 
Q 3066 4069 2747 4153 
Q 2428 4238 2131 4238 
Q 1616 4238 1336 4038 
Q 1056 3838 1056 3469 
Q 1056 3159 1242 3001 
Q 1428 2844 1947 2747 
L 2328 2669 
Q 3034 2534 3370 2195 
Q 3706 1856 3706 1288 
Q 3706 609 3251 259 
Q 2797 -91 1919 -91 
Q 1588 -91 1214 -16 
Q 841 59 441 206 
L 441 856 
Q 825 641 1194 531 
Q 1563 422 1919 422 
Q 2459 422 2753 634 
Q 3047 847 3047 1241 
Q 3047 1584 2836 1778 
Q 2625 1972 2144 2069 
L 1759 2144 
Q 1053 2284 737 2584 
Q 422 2884 422 3419 
Q 422 4038 858 4394 
Q 1294 4750 2059 4750 
Q 2388 4750 2728 4690 
Q 3069 4631 3425 4513 
z
" transform="scale(0.015625)"/>
        <path id="DejaVuSans-4d" d="M 628 4666 
L 1569 4666 
L 2759 1491 
L 3956 4666 
L 4897 4666 
L 4897 0 
L 4281 0 
L 4281 4097 
L 3078 897 
L 2444 897 
L 1241 4097 
L 1241 0 
L 628 0 
L 628 4666 
z
" transform="scale(0.015625)"/>
       </defs>
       <use xlink:href="#DejaVuSans-53"/>
       <use xlink:href="#DejaVuSans-4d" x="63.476562"/>
      </g>
     </g>
    </g>
    <g id="xtick_2">
     <g id="line2d_2">
      <g>
       <use xlink:href="#m138ce402bf" x="239.4" y="384.48" style="stroke: #000000; stroke-width: 0.8"/>
      </g>
     </g>
     <g id="text_2">
      <!-- SP -->
      <g transform="translate(233.210937 399.078438)scale(0.1 -0.1)">
       <defs>
        <path id="DejaVuSans-50" d="M 1259 4147 
L 1259 2394 
L 2053 2394 
Q 2494 2394 2734 2622 
Q 2975 2850 2975 3272 
Q 2975 3691 2734 3919 
Q 2494 4147 2053 4147 
L 1259 4147 
z
M 628 4666 
L 2053 4666 
Q 2838 4666 3239 4311 
Q 3641 3956 3641 3272 
Q 3641 2581 3239 2228 
Q 2838 1875 2053 1875 
L 1259 1875 
L 1259 0 
L 628 0 
L 628 4666 
z
" transform="scale(0.015625)"/>
       </defs>
       <use xlink:href="#DejaVuSans-53"/>
       <use xlink:href="#DejaVuSans-50" x="63.476562"/>
      </g>
     </g>
    </g>
    <g id="xtick_3">
     <g id="line2d_3">
      <g>
       <use xlink:href="#m138ce402bf" x="351" y="384.48" style="stroke: #000000; stroke-width: 0.8"/>
      </g>
     </g>
     <g id="text_3">
      <!-- SN -->
      <g transform="translate(344.085156 399.078438)scale(0.1 -0.1)">
       <defs>
        <path id="DejaVuSans-4e" d="M 628 4666 
L 1478 4666 
L 3547 763 
L 3547 4666 
L 4159 4666 
L 4159 0 
L 3309 0 
L 1241 3903 
L 1241 0 
L 628 0 
L 628 4666 
z
" transform="scale(0.015625)"/>
       </defs>
       <use xlink:href="#DejaVuSans-53"/>
       <use xlink:href="#DejaVuSans-4e" x="63.476562"/>
      </g>
     </g>
    </g>
    <g id="xtick_4">
     <g id="line2d_4">
      <g>
       <use xlink:href="#m138ce402bf" x="462.6" y="384.48" style="stroke: #000000; stroke-width: 0.8"/>
      </g>
     </g>
     <g id="text_4">
      <!-- SL -->
      <g transform="translate(456.639844 399.078438)scale(0.1 -0.1)">
       <defs>
        <path id="DejaVuSans-4c" d="M 628 4666 
L 1259 4666 
L 1259 531 
L 3531 531 
L 3531 0 
L 628 0 
L 628 4666 
z
" transform="scale(0.015625)"/>
       </defs>
       <use xlink:href="#DejaVuSans-53"/>
       <use xlink:href="#DejaVuSans-4c" x="63.476562"/>
      </g>
     </g>
    </g>
    <g id="text_5">
     <!-- replicate -->
     <g transform="translate(273.378125 412.756563)scale(0.1 -0.1)">
      <defs>
       <path id="DejaVuSans-72" d="M 2631 2963 
Q 2534 3019 2420 3045 
Q 2306 3072 2169 3072 
Q 1681 3072 1420 2755 
Q 1159 2438 1159 1844 
L 1159 0 
L 581 0 
L 581 3500 
L 1159 3500 
L 1159 2956 
Q 1341 3275 1631 3429 
Q 1922 3584 2338 3584 
Q 2397 3584 2469 3576 
Q 2541 3569 2628 3553 
L 2631 2963 
z
" transform="scale(0.015625)"/>
       <path id="DejaVuSans-65" d="M 3597 1894 
L 3597 1613 
L 953 1613 
Q 991 1019 1311 708 
Q 1631 397 2203 397 
Q 2534 397 2845 478 
Q 3156 559 3463 722 
L 3463 178 
Q 3153 47 2828 -22 
Q 2503 -91 2169 -91 
Q 1331 -91 842 396 
Q 353 884 353 1716 
Q 353 2575 817 3079 
Q 1281 3584 2069 3584 
Q 2775 3584 3186 3129 
Q 3597 2675 3597 1894 
z
M 3022 2063 
Q 3016 2534 2758 2815 
Q 2500 3097 2075 3097 
Q 1594 3097 1305 2825 
Q 1016 2553 972 2059 
L 3022 2063 
z
" transform="scale(0.015625)"/>
       <path id="DejaVuSans-70" d="M 1159 525 
L 1159 -1331 
L 581 -1331 
L 581 3500 
L 1159 3500 
L 1159 2969 
Q 1341 3281 1617 3432 
Q 1894 3584 2278 3584 
Q 2916 3584 3314 3078 
Q 3713 2572 3713 1747 
Q 3713 922 3314 415 
Q 2916 -91 2278 -91 
Q 1894 -91 1617 61 
Q 1341 213 1159 525 
z
M 3116 1747 
Q 3116 2381 2855 2742 
Q 2594 3103 2138 3103 
Q 1681 3103 1420 2742 
Q 1159 2381 1159 1747 
Q 1159 1113 1420 752 
Q 1681 391 2138 391 
Q 2594 391 2855 752 
Q 3116 1113 3116 1747 
z
" transform="scale(0.015625)"/>
       <path id="DejaVuSans-6c" d="M 603 4863 
L 1178 4863 
L 1178 0 
L 603 0 
L 603 4863 
z
" transform="scale(0.015625)"/>
       <path id="DejaVuSans-69" d="M 603 3500 
L 1178 3500 
L 1178 0 
L 603 0 
L 603 3500 
z
M 603 4863 
L 1178 4863 
L 1178 4134 
L 603 4134 
L 603 4863 
z
" transform="scale(0.015625)"/>
       <path id="DejaVuSans-63" d="M 3122 3366 
L 3122 2828 
Q 2878 2963 2633 3030 
Q 2388 3097 2138 3097 
Q 1578 3097 1268 2742 
Q 959 2388 959 1747 
Q 959 1106 1268 751 
Q 1578 397 2138 397 
Q 2388 397 2633 464 
Q 2878 531 3122 666 
L 3122 134 
Q 2881 22 2623 -34 
Q 2366 -91 2075 -91 
Q 1284 -91 818 406 
Q 353 903 353 1747 
Q 353 2603 823 3093 
Q 1294 3584 2113 3584 
Q 2378 3584 2631 3529 
Q 2884 3475 3122 3366 
z
" transform="scale(0.015625)"/>
       <path id="DejaVuSans-61" d="M 2194 1759 
Q 1497 1759 1228 1600 
Q 959 1441 959 1056 
Q 959 750 1161 570 
Q 1363 391 1709 391 
Q 2188 391 2477 730 
Q 2766 1069 2766 1631 
L 2766 1759 
L 2194 1759 
z
M 3341 1997 
L 3341 0 
L 2766 0 
L 2766 531 
Q 2569 213 2275 61 
Q 1981 -91 1556 -91 
Q 1019 -91 701 211 
Q 384 513 384 1019 
Q 384 1609 779 1909 
Q 1175 2209 1959 2209 
L 2766 2209 
L 2766 2266 
Q 2766 2663 2505 2880 
Q 2244 3097 1772 3097 
Q 1472 3097 1187 3025 
Q 903 2953 641 2809 
L 641 3341 
Q 956 3463 1253 3523 
Q 1550 3584 1831 3584 
Q 2591 3584 2966 3190 
Q 3341 2797 3341 1997 
z
" transform="scale(0.015625)"/>
       <path id="DejaVuSans-74" d="M 1172 4494 
L 1172 3500 
L 2356 3500 
L 2356 3053 
L 1172 3053 
L 1172 1153 
Q 1172 725 1289 603 
Q 1406 481 1766 481 
L 2356 481 
L 2356 0 
L 1766 0 
Q 1100 0 847 248 
Q 594 497 594 1153 
L 594 3053 
L 172 3053 
L 172 3500 
L 594 3500 
L 594 4494 
L 1172 4494 
z
" transform="scale(0.015625)"/>
      </defs>
      <use xlink:href="#DejaVuSans-72"/>
      <use xlink:href="#DejaVuSans-65" x="38.863281"/>
      <use xlink:href="#DejaVuSans-70" x="100.386719"/>
      <use xlink:href="#DejaVuSans-6c" x="163.863281"/>
      <use xlink:href="#DejaVuSans-69" x="191.646484"/>
      <use xlink:href="#DejaVuSans-63" x="219.429688"/>
      <use xlink:href="#DejaVuSans-61" x="274.410156"/>
      <use xlink:href="#DejaVuSans-74" x="335.689453"/>
      <use xlink:href="#DejaVuSans-65" x="374.898438"/>
     </g>
    </g>
   </g>
   <g id="matplotlib.axis_2">
    <g id="ytick_1">
     <g id="line2d_5">
      <defs>
       <path id="m9adbef4ddc" d="M 0 0 
L -3.5 0 
" style="stroke: #000000; stroke-width: 0.8"/>
      </defs>
      <g>
       <use xlink:href="#m9adbef4ddc" x="72" y="370.265309" style="stroke: #000000; stroke-width: 0.8"/>
      </g>
     </g>
     <g id="text_6">
      <!-- 0 -->
      <g transform="translate(58.6375 374.064527)scale(0.1 -0.1)">
       <defs>
        <path id="DejaVuSans-30" d="M 2034 4250 
Q 1547 4250 1301 3770 
Q 1056 3291 1056 2328 
Q 1056 1369 1301 889 
Q 1547 409 2034 409 
Q 2525 409 2770 889 
Q 3016 1369 3016 2328 
Q 3016 3291 2770 3770 
Q 2525 4250 2034 4250 
z
M 2034 4750 
Q 2819 4750 3233 4129 
Q 3647 3509 3647 2328 
Q 3647 1150 3233 529 
Q 2819 -91 2034 -91 
Q 1250 -91 836 529 
Q 422 1150 422 2328 
Q 422 3509 836 4129 
Q 1250 4750 2034 4750 
z
" transform="scale(0.015625)"/>
       </defs>
       <use xlink:href="#DejaVuSans-30"/>
      </g>
     </g>
    </g>
    <g id="ytick_2">
     <g id="line2d_6">
      <g>
       <use xlink:href="#m9adbef4ddc" x="72" y="316.096567" style="stroke: #000000; stroke-width: 0.8"/>
      </g>
     </g>
     <g id="text_7">
      <!-- 1000 -->
      <g transform="translate(39.55 319.895786)scale(0.1 -0.1)">
       <defs>
        <path id="DejaVuSans-31" d="M 794 531 
L 1825 531 
L 1825 4091 
L 703 3866 
L 703 4441 
L 1819 4666 
L 2450 4666 
L 2450 531 
L 3481 531 
L 3481 0 
L 794 0 
L 794 531 
z
" transform="scale(0.015625)"/>
       </defs>
       <use xlink:href="#DejaVuSans-31"/>
       <use xlink:href="#DejaVuSans-30" x="63.623047"/>
       <use xlink:href="#DejaVuSans-30" x="127.246094"/>
       <use xlink:href="#DejaVuSans-30" x="190.869141"/>
      </g>
     </g>
    </g>
    <g id="ytick_3">
     <g id="line2d_7">
      <g>
       <use xlink:href="#m9adbef4ddc" x="72" y="261.927826" style="stroke: #000000; stroke-width: 0.8"/>
      </g>
     </g>
     <g id="text_8">
      <!-- 2000 -->
      <g transform="translate(39.55 265.727045)scale(0.1 -0.1)">
       <defs>
        <path id="DejaVuSans-32" d="M 1228 531 
L 3431 531 
L 3431 0 
L 469 0 
L 469 531 
Q 828 903 1448 1529 
Q 2069 2156 2228 2338 
Q 2531 2678 2651 2914 
Q 2772 3150 2772 3378 
Q 2772 3750 2511 3984 
Q 2250 4219 1831 4219 
Q 1534 4219 1204 4116 
Q 875 4013 500 3803 
L 500 4441 
Q 881 4594 1212 4672 
Q 1544 4750 1819 4750 
Q 2544 4750 2975 4387 
Q 3406 4025 3406 3419 
Q 3406 3131 3298 2873 
Q 3191 2616 2906 2266 
Q 2828 2175 2409 1742 
Q 1991 1309 1228 531 
z
" transform="scale(0.015625)"/>
       </defs>
       <use xlink:href="#DejaVuSans-32"/>
       <use xlink:href="#DejaVuSans-30" x="63.623047"/>
       <use xlink:href="#DejaVuSans-30" x="127.246094"/>
       <use xlink:href="#DejaVuSans-30" x="190.869141"/>
      </g>
     </g>
    </g>
    <g id="ytick_4">
     <g id="line2d_8">
      <g>
       <use xlink:href="#m9adbef4ddc" x="72" y="207.759084" style="stroke: #000000; stroke-width: 0.8"/>
      </g>
     </g>
     <g id="text_9">
      <!-- 3000 -->
      <g transform="translate(39.55 211.558303)scale(0.1 -0.1)">
       <defs>
        <path id="DejaVuSans-33" d="M 2597 2516 
Q 3050 2419 3304 2112 
Q 3559 1806 3559 1356 
Q 3559 666 3084 287 
Q 2609 -91 1734 -91 
Q 1441 -91 1130 -33 
Q 819 25 488 141 
L 488 750 
Q 750 597 1062 519 
Q 1375 441 1716 441 
Q 2309 441 2620 675 
Q 2931 909 2931 1356 
Q 2931 1769 2642 2001 
Q 2353 2234 1838 2234 
L 1294 2234 
L 1294 2753 
L 1863 2753 
Q 2328 2753 2575 2939 
Q 2822 3125 2822 3475 
Q 2822 3834 2567 4026 
Q 2313 4219 1838 4219 
Q 1578 4219 1281 4162 
Q 984 4106 628 3988 
L 628 4550 
Q 988 4650 1302 4700 
Q 1616 4750 1894 4750 
Q 2613 4750 3031 4423 
Q 3450 4097 3450 3541 
Q 3450 3153 3228 2886 
Q 3006 2619 2597 2516 
z
" transform="scale(0.015625)"/>
       </defs>
       <use xlink:href="#DejaVuSans-33"/>
       <use xlink:href="#DejaVuSans-30" x="63.623047"/>
       <use xlink:href="#DejaVuSans-30" x="127.246094"/>
       <use xlink:href="#DejaVuSans-30" x="190.869141"/>
      </g>
     </g>
    </g>
    <g id="ytick_5">
     <g id="line2d_9">
      <g>
       <use xlink:href="#m9adbef4ddc" x="72" y="153.590343" style="stroke: #000000; stroke-width: 0.8"/>
      </g>
     </g>
     <g id="text_10">
      <!-- 4000 -->
      <g transform="translate(39.55 157.389562)scale(0.1 -0.1)">
       <defs>
        <path id="DejaVuSans-34" d="M 2419 4116 
L 825 1625 
L 2419 1625 
L 2419 4116 
z
M 2253 4666 
L 3047 4666 
L 3047 1625 
L 3713 1625 
L 3713 1100 
L 3047 1100 
L 3047 0 
L 2419 0 
L 2419 1100 
L 313 1100 
L 313 1709 
L 2253 4666 
z
" transform="scale(0.015625)"/>
       </defs>
       <use xlink:href="#DejaVuSans-34"/>
       <use xlink:href="#DejaVuSans-30" x="63.623047"/>
       <use xlink:href="#DejaVuSans-30" x="127.246094"/>
       <use xlink:href="#DejaVuSans-30" x="190.869141"/>
      </g>
     </g>
    </g>
    <g id="ytick_6">
     <g id="line2d_10">
      <g>
       <use xlink:href="#m9adbef4ddc" x="72" y="99.421601" style="stroke: #000000; stroke-width: 0.8"/>
      </g>
     </g>
     <g id="text_11">
      <!-- 5000 -->
      <g transform="translate(39.55 103.22082)scale(0.1 -0.1)">
       <defs>
        <path id="DejaVuSans-35" d="M 691 4666 
L 3169 4666 
L 3169 4134 
L 1269 4134 
L 1269 2991 
Q 1406 3038 1543 3061 
Q 1681 3084 1819 3084 
Q 2600 3084 3056 2656 
Q 3513 2228 3513 1497 
Q 3513 744 3044 326 
Q 2575 -91 1722 -91 
Q 1428 -91 1123 -41 
Q 819 9 494 109 
L 494 744 
Q 775 591 1075 516 
Q 1375 441 1709 441 
Q 2250 441 2565 725 
Q 2881 1009 2881 1497 
Q 2881 1984 2565 2268 
Q 2250 2553 1709 2553 
Q 1456 2553 1204 2497 
Q 953 2441 691 2322 
L 691 4666 
z
" transform="scale(0.015625)"/>
       </defs>
       <use xlink:href="#DejaVuSans-35"/>
       <use xlink:href="#DejaVuSans-30" x="63.623047"/>
       <use xlink:href="#DejaVuSans-30" x="127.246094"/>
       <use xlink:href="#DejaVuSans-30" x="190.869141"/>
      </g>
     </g>
    </g>
    <g id="text_12">
     <!-- length -->
     <g transform="translate(33.470312 234.0975)rotate(-90)scale(0.1 -0.1)">
      <defs>
       <path id="DejaVuSans-6e" d="M 3513 2113 
L 3513 0 
L 2938 0 
L 2938 2094 
Q 2938 2591 2744 2837 
Q 2550 3084 2163 3084 
Q 1697 3084 1428 2787 
Q 1159 2491 1159 1978 
L 1159 0 
L 581 0 
L 581 3500 
L 1159 3500 
L 1159 2956 
Q 1366 3272 1645 3428 
Q 1925 3584 2291 3584 
Q 2894 3584 3203 3211 
Q 3513 2838 3513 2113 
z
" transform="scale(0.015625)"/>
       <path id="DejaVuSans-67" d="M 2906 1791 
Q 2906 2416 2648 2759 
Q 2391 3103 1925 3103 
Q 1463 3103 1205 2759 
Q 947 2416 947 1791 
Q 947 1169 1205 825 
Q 1463 481 1925 481 
Q 2391 481 2648 825 
Q 2906 1169 2906 1791 
z
M 3481 434 
Q 3481 -459 3084 -895 
Q 2688 -1331 1869 -1331 
Q 1566 -1331 1297 -1286 
Q 1028 -1241 775 -1147 
L 775 -588 
Q 1028 -725 1275 -790 
Q 1522 -856 1778 -856 
Q 2344 -856 2625 -561 
Q 2906 -266 2906 331 
L 2906 616 
Q 2728 306 2450 153 
Q 2172 0 1784 0 
Q 1141 0 747 490 
Q 353 981 353 1791 
Q 353 2603 747 3093 
Q 1141 3584 1784 3584 
Q 2172 3584 2450 3431 
Q 2728 3278 2906 2969 
L 2906 3500 
L 3481 3500 
L 3481 434 
z
" transform="scale(0.015625)"/>
       <path id="DejaVuSans-68" d="M 3513 2113 
L 3513 0 
L 2938 0 
L 2938 2094 
Q 2938 2591 2744 2837 
Q 2550 3084 2163 3084 
Q 1697 3084 1428 2787 
Q 1159 2491 1159 1978 
L 1159 0 
L 581 0 
L 581 4863 
L 1159 4863 
L 1159 2956 
Q 1366 3272 1645 3428 
Q 1925 3584 2291 3584 
Q 2894 3584 3203 3211 
Q 3513 2838 3513 2113 
z
" transform="scale(0.015625)"/>
      </defs>
      <use xlink:href="#DejaVuSans-6c"/>
      <use xlink:href="#DejaVuSans-65" x="27.783203"/>
      <use xlink:href="#DejaVuSans-6e" x="89.306641"/>
      <use xlink:href="#DejaVuSans-67" x="152.685547"/>
      <use xlink:href="#DejaVuSans-74" x="216.162109"/>
      <use xlink:href="#DejaVuSans-68" x="255.371094"/>
     </g>
    </g>
   </g>
   <g id="line2d_11">
    <path d="M 127.8 363.33171 
L 127.8 280.995223 
" clip-path="url(#pb49b15c689)" style="fill: none; stroke: #3d3d3d; stroke-width: 1.5; stroke-linecap: square"/>
   </g>
   <g id="line2d_12">
    <path d="M 127.8 353.039649 
L 127.8 324.221878 
" clip-path="url(#pb49b15c689)" style="fill: none; stroke: #3d3d3d; stroke-width: 4.5; stroke-linecap: square"/>
   </g>
   <g id="line2d_13">
    <path d="M 239.4 363.33171 
L 239.4 284.353685 
" clip-path="url(#pb49b15c689)" style="fill: none; stroke: #3d3d3d; stroke-width: 1.5; stroke-linecap: square"/>
   </g>
   <g id="line2d_14">
    <path d="M 239.4 352.335455 
L 239.4 325.142747 
" clip-path="url(#pb49b15c689)" style="fill: none; stroke: #3d3d3d; stroke-width: 4.5; stroke-linecap: square"/>
   </g>
   <g id="line2d_15">
    <path d="M 351 364.63176 
L 351 306.021181 
" clip-path="url(#pb49b15c689)" style="fill: none; stroke: #3d3d3d; stroke-width: 1.5; stroke-linecap: square"/>
   </g>
   <g id="line2d_16">
    <path d="M 351 356.506448 
L 351 336.301508 
" clip-path="url(#pb49b15c689)" style="fill: none; stroke: #3d3d3d; stroke-width: 4.5; stroke-linecap: square"/>
   </g>
   <g id="line2d_17">
    <path d="M 462.6 363.710891 
L 462.6 285.220385 
" clip-path="url(#pb49b15c689)" style="fill: none; stroke: #3d3d3d; stroke-width: 1.5; stroke-linecap: square"/>
   </g>
   <g id="line2d_18">
    <path d="M 462.6 352.931311 
L 462.6 325.846941 
" clip-path="url(#pb49b15c689)" style="fill: none; stroke: #3d3d3d; stroke-width: 4.5; stroke-linecap: square"/>
   </g>
   <g id="patch_3">
    <path d="M 72 384.48 
L 72 51.84 
" style="fill: none; stroke: #000000; stroke-width: 0.8; stroke-linejoin: miter; stroke-linecap: square"/>
   </g>
   <g id="patch_4">
    <path d="M 518.4 384.48 
L 518.4 51.84 
" style="fill: none; stroke: #000000; stroke-width: 0.8; stroke-linejoin: miter; stroke-linecap: square"/>
   </g>
   <g id="patch_5">
    <path d="M 72 384.48 
L 518.4 384.48 
" style="fill: none; stroke: #000000; stroke-width: 0.8; stroke-linejoin: miter; stroke-linecap: square"/>
   </g>
   <g id="patch_6">
    <path d="M 72 51.84 
L 518.4 51.84 
" style="fill: none; stroke: #000000; stroke-width: 0.8; stroke-linejoin: miter; stroke-linecap: square"/>
   </g>
   <g id="PathCollection_1">
    <defs>
     <path id="mc2c5f07ff1" d="M 0 1.5 
C 0.397805 1.5 0.77937 1.341951 1.06066 1.06066 
C 1.341951 0.77937 1.5 0.397805 1.5 0 
C 1.5 -0.397805 1.341951 -0.77937 1.06066 -1.06066 
C 0.77937 -1.341951 0.397805 -1.5 0 -1.5 
C -0.397805 -1.5 -0.77937 -1.341951 -1.06066 -1.06066 
C -1.341951 -0.77937 -1.5 -0.397805 -1.5 0 
C -1.5 0.397805 -1.341951 0.77937 -1.06066 1.06066 
C -0.77937 1.341951 -0.397805 1.5 0 1.5 
z
" style="stroke: #3d3d3d"/>
    </defs>
    <g clip-path="url(#pb49b15c689)">
     <use xlink:href="#mc2c5f07ff1" x="127.8" y="343.0726" style="fill: #ffffff; stroke: #3d3d3d"/>
    </g>
   </g>
   <g id="PathCollection_2">
    <g clip-path="url(#pb49b15c689)">
     <use xlink:href="#mc2c5f07ff1" x="239.4" y="342.314238" style="fill: #ffffff; stroke: #3d3d3d"/>
    </g>
   </g>
   <g id="PathCollection_3">
    <g clip-path="url(#pb49b15c689)">
     <use xlink:href="#mc2c5f07ff1" x="351" y="349.464512" style="fill: #ffffff; stroke: #3d3d3d"/>
    </g>
   </g>
   <g id="PathCollection_4">
    <g clip-path="url(#pb49b15c689)">
     <use xlink:href="#mc2c5f07ff1" x="462.6" y="343.126769" style="fill: #ffffff; stroke: #3d3d3d"/>
    </g>
   </g>
   <g id="text_13">
    <!-- 643 -->
    <g transform="translate(89.625 352.842565)scale(0.2 -0.2)">
     <defs>
      <path id="DejaVuSans-36" d="M 2113 2584 
Q 1688 2584 1439 2293 
Q 1191 2003 1191 1497 
Q 1191 994 1439 701 
Q 1688 409 2113 409 
Q 2538 409 2786 701 
Q 3034 994 3034 1497 
Q 3034 2003 2786 2293 
Q 2538 2584 2113 2584 
z
M 3366 4563 
L 3366 3988 
Q 3128 4100 2886 4159 
Q 2644 4219 2406 4219 
Q 1781 4219 1451 3797 
Q 1122 3375 1075 2522 
Q 1259 2794 1537 2939 
Q 1816 3084 2150 3084 
Q 2853 3084 3261 2657 
Q 3669 2231 3669 1497 
Q 3669 778 3244 343 
Q 2819 -91 2113 -91 
Q 1303 -91 875 529 
Q 447 1150 447 2328 
Q 447 3434 972 4092 
Q 1497 4750 2381 4750 
Q 2619 4750 2861 4703 
Q 3103 4656 3366 4563 
z
" transform="scale(0.015625)"/>
     </defs>
     <use xlink:href="#DejaVuSans-36"/>
     <use xlink:href="#DejaVuSans-34" x="63.623047"/>
     <use xlink:href="#DejaVuSans-33" x="127.246094"/>
    </g>
   </g>
   <g id="text_14">
    <!-- 668 -->
    <g transform="translate(201.225 352.183681)scale(0.2 -0.2)">
     <defs>
      <path id="DejaVuSans-38" d="M 2034 2216 
Q 1584 2216 1326 1975 
Q 1069 1734 1069 1313 
Q 1069 891 1326 650 
Q 1584 409 2034 409 
Q 2484 409 2743 651 
Q 3003 894 3003 1313 
Q 3003 1734 2745 1975 
Q 2488 2216 2034 2216 
z
M 1403 2484 
Q 997 2584 770 2862 
Q 544 3141 544 3541 
Q 544 4100 942 4425 
Q 1341 4750 2034 4750 
Q 2731 4750 3128 4425 
Q 3525 4100 3525 3541 
Q 3525 3141 3298 2862 
Q 3072 2584 2669 2484 
Q 3125 2378 3379 2068 
Q 3634 1759 3634 1313 
Q 3634 634 3220 271 
Q 2806 -91 2034 -91 
Q 1263 -91 848 271 
Q 434 634 434 1313 
Q 434 1759 690 2068 
Q 947 2378 1403 2484 
z
M 1172 3481 
Q 1172 3119 1398 2916 
Q 1625 2713 2034 2713 
Q 2441 2713 2670 2916 
Q 2900 3119 2900 3481 
Q 2900 3844 2670 4047 
Q 2441 4250 2034 4250 
Q 1625 4250 1398 4047 
Q 1172 3844 1172 3481 
z
" transform="scale(0.015625)"/>
     </defs>
     <use xlink:href="#DejaVuSans-36"/>
     <use xlink:href="#DejaVuSans-36" x="63.623047"/>
     <use xlink:href="#DejaVuSans-38" x="127.246094"/>
    </g>
   </g>
   <g id="text_15">
    <!-- 495 -->
    <g transform="translate(312.825 356.852501)scale(0.2 -0.2)">
     <defs>
      <path id="DejaVuSans-39" d="M 703 97 
L 703 672 
Q 941 559 1184 500 
Q 1428 441 1663 441 
Q 2288 441 2617 861 
Q 2947 1281 2994 2138 
Q 2813 1869 2534 1725 
Q 2256 1581 1919 1581 
Q 1219 1581 811 2004 
Q 403 2428 403 3163 
Q 403 3881 828 4315 
Q 1253 4750 1959 4750 
Q 2769 4750 3195 4129 
Q 3622 3509 3622 2328 
Q 3622 1225 3098 567 
Q 2575 -91 1691 -91 
Q 1453 -91 1209 -44 
Q 966 3 703 97 
z
M 1959 2075 
Q 2384 2075 2632 2365 
Q 2881 2656 2881 3163 
Q 2881 3666 2632 3958 
Q 2384 4250 1959 4250 
Q 1534 4250 1286 3958 
Q 1038 3666 1038 3163 
Q 1038 2656 1286 2365 
Q 1534 2075 1959 2075 
z
" transform="scale(0.015625)"/>
     </defs>
     <use xlink:href="#DejaVuSans-34"/>
     <use xlink:href="#DejaVuSans-39" x="63.623047"/>
     <use xlink:href="#DejaVuSans-35" x="127.246094"/>
    </g>
   </g>
   <g id="text_16">
    <!-- 647 -->
    <g transform="translate(424.425 352.735451)scale(0.2 -0.2)">
     <defs>
      <path id="DejaVuSans-37" d="M 525 4666 
L 3525 4666 
L 3525 4397 
L 1831 0 
L 1172 0 
L 2766 4134 
L 525 4134 
L 525 4666 
z
" transform="scale(0.015625)"/>
     </defs>
     <use xlink:href="#DejaVuSans-36"/>
     <use xlink:href="#DejaVuSans-34" x="63.623047"/>
     <use xlink:href="#DejaVuSans-37" x="127.246094"/>
    </g>
   </g>
   <g id="text_17">
    <!-- peak length -->
    <g transform="translate(259.515938 45.84)scale(0.12 -0.12)">
     <defs>
      <path id="DejaVuSans-6b" d="M 581 4863 
L 1159 4863 
L 1159 1991 
L 2875 3500 
L 3609 3500 
L 1753 1863 
L 3688 0 
L 2938 0 
L 1159 1709 
L 1159 0 
L 581 0 
L 581 4863 
z
" transform="scale(0.015625)"/>
      <path id="DejaVuSans-20" transform="scale(0.015625)"/>
     </defs>
     <use xlink:href="#DejaVuSans-70"/>
     <use xlink:href="#DejaVuSans-65" x="63.476562"/>
     <use xlink:href="#DejaVuSans-61" x="125"/>
     <use xlink:href="#DejaVuSans-6b" x="186.279297"/>
     <use xlink:href="#DejaVuSans-20" x="244.189453"/>
     <use xlink:href="#DejaVuSans-6c" x="275.976562"/>
     <use xlink:href="#DejaVuSans-65" x="303.759766"/>
     <use xlink:href="#DejaVuSans-6e" x="365.283203"/>
     <use xlink:href="#DejaVuSans-67" x="428.662109"/>
     <use xlink:href="#DejaVuSans-74" x="492.138672"/>
     <use xlink:href="#DejaVuSans-68" x="531.347656"/>
    </g>
   </g>
  </g>
 </g>
 <defs>
  <clipPath id="pb49b15c689">
   <rect x="72" y="51.84" width="446.4" height="332.64"/>
  </clipPath>
 </defs>
</svg>
